<svg width="93" height="103" viewBox="0 0 93 103" fill="none" xmlns="http://www.w3.org/2000/svg"><path d="M1.172 96.63c-.425-.34-.53-1.002-.236-1.478l4.805-7.76c.295-.476.878-.587 1.303-.246.425.34.53 1.002.235 1.478l-4.27 6.899 6.153 4.93c.425.34.53 1.002.236 1.479-.295.476-.879.586-1.304.246l-6.922-5.547zm.367-1.907c18.982-3.583 33.612-7.527 44.665-11.632 11.064-4.109 18.49-8.36 23.106-12.526 4.613-4.163 6.313-8.134 6.218-11.716-.096-3.614-2.028-7.176-5.36-10.49l1.226-1.584c3.521 3.503 5.887 7.58 6.006 12.04.12 4.491-2.047 9.026-6.91 13.415-4.861 4.386-12.521 8.732-23.68 12.876-11.17 4.149-25.898 8.114-44.938 11.708l-.333-2.091zm68.63-46.364c-3.592-3.573-6.615-9.406-8.502-15.71-1.888-6.311-2.684-13.246-1.69-19.081 1-5.87 3.844-10.732 9.265-12.51C74.573-.688 82.165.636 92.514 6.38l-.805 1.901c-10.2-5.66-17.26-6.713-21.923-5.185-4.573 1.5-7.061 5.565-7.97 10.902-.915 5.371-.195 11.92 1.624 17.996 1.82 6.082 4.694 11.539 7.954 14.782l-1.225 1.584z" fill="#ADC4EC"/></svg>