<svg width="93" height="103" viewBox="0 0 93 103" fill="none" xmlns="http://www.w3.org/2000/svg">
<path d="M1.17156 96.6308C0.746735 96.2904 0.641353 95.6284 0.936181 95.1522L5.74068 87.3918C6.03551 86.9156 6.61891 86.8055 7.04373 87.1459C7.46856 87.4863 7.57394 88.1482 7.27911 88.6245L3.00844 95.5226L9.16215 100.453C9.58698 100.793 9.69236 101.455 9.39753 101.932C9.1027 102.408 8.51931 102.518 8.09448 102.178L1.17156 96.6308ZM1.53896 94.723C20.5211 91.1401 35.1515 87.1961 46.204 83.0913C57.2679 78.9823 64.6936 74.731 69.3096 70.5654C73.9227 66.4024 75.6233 62.4305 75.5279 58.8489C75.4317 55.2345 73.5003 51.673 70.1689 48.359L71.394 46.7752C74.915 50.2779 77.281 54.3557 77.3997 58.8144C77.5193 63.306 75.3528 67.841 70.4893 72.23C65.6287 76.6164 57.9685 80.9621 46.81 85.1063C35.6403 89.2547 20.912 93.2201 1.87183 96.814L1.53896 94.723ZM70.1689 48.359C66.5769 44.7857 63.5538 38.9534 61.667 32.6484C59.7786 26.338 58.9829 19.4028 59.9766 13.5679C60.9763 7.6987 63.821 2.83574 69.242 1.0587C74.573 -0.688832 82.1649 0.635363 92.514 6.37937L91.7085 8.28015C81.5098 2.61964 74.4483 1.56705 69.7859 3.09543C65.2134 4.59432 62.7246 8.65996 61.8156 13.997C60.9007 19.3684 61.6214 25.9171 63.4398 31.9933C65.2597 38.0748 68.1336 43.5317 71.394 46.7752L70.1689 48.359Z" fill="#ADC4EC"/>
</svg>
