<svg width="24" height="22" viewBox="0 0 24 22" fill="none" xmlns="http://www.w3.org/2000/svg"><path d="M20.297 9.128a.937.937 0 00-.938-.938h-5.437a.937.937 0 100 1.875h5.437c.518 0 .938-.42.938-.937zm-6.375 2.812a.937.937 0 100 1.875h3.562a.937.937 0 100-1.875h-3.562z" fill="#2264D1"/><path d="M23.063 10.065c.517 0 .937-.42.937-.937V4.44A3.754 3.754 0 0020.25.69H3.75A3.754 3.754 0 000 4.44v9.375a3.754 3.754 0 003.75 3.75h7.313v1.87H7.78a.937.937 0 100 1.875h8.438a.937.937 0 000-1.875h-3.282v-1.87h7.313a3.754 3.754 0 003.75-3.75.937.937 0 10-1.875 0 1.877 1.877 0 01-1.875 1.875H3.75a1.877 1.877 0 01-1.875-1.875V4.44c0-1.033.841-1.875 1.875-1.875h16.5c1.034 0 1.875.842 1.875 1.875v4.688c0 .518.42.937.938.937z" fill="#2264D1"/><path d="M10.078 8.19H4.641a.937.937 0 100 1.875h5.437a.937.937 0 100-1.875zm9.282-3.75h-5.438a.937.937 0 100 1.875h5.437a.937.937 0 100-1.875zm-9.282 0H4.641a.937.937 0 100 1.875h5.437a.937.937 0 100-1.875zm0 7.5H4.641a.937.937 0 100 1.875h5.437a.937.937 0 100-1.875z" fill="#2264D1"/></svg>