<svg width="20" height="24" viewBox="0 0 20 24" fill="none" xmlns="http://www.w3.org/2000/svg"><path d="M14.83 17.484h-2.765a.937.937 0 100 1.875h2.766a.937.937 0 100-1.875zm0-5.671h-2.765a.937.937 0 100 1.874h2.766a.937.937 0 100-1.874z" fill="#2264D1"/><path d="M18.576 16.5c.517 0 .937-.42.937-.938V3.75A3.754 3.754 0 0015.763 0H4.237a3.754 3.754 0 00-3.75 3.75v16.5A3.754 3.754 0 004.237 24h11.526a3.754 3.754 0 003.75-3.75.937.937 0 10-1.875 0 1.877 1.877 0 01-1.875 1.875H4.237a1.877 1.877 0 01-1.875-1.875V3.75c0-1.034.841-1.875 1.875-1.875h11.526c1.034 0 1.875.841 1.875 1.875v11.813c0 .517.42.937.938.937z" fill="#2264D1"/><path d="M9.99 3.73a.937.937 0 00-1.32.126L6.646 6.307l-.799-.82a.938.938 0 00-1.343 1.308L5.51 7.828a1.638 1.638 0 001.26.472c.452-.031.874-.25 1.16-.602l2.187-2.648a.937.937 0 00-.126-1.32zm0 11.432a.937.937 0 00-1.32.126L6.646 17.74l-.8-.818a.938.938 0 00-1.34 1.312l1.005 1.027.024.023a1.638 1.638 0 001.234.447 1.64 1.64 0 001.16-.6l2.188-2.649c.33-.4.274-.99-.126-1.32zm4.84-9.115h-2.765a.937.937 0 100 1.875h2.766a.937.937 0 100-1.875zM9.99 9.49a.937.937 0 00-1.32.126l-2.025 2.452-.8-.818a.937.937 0 10-1.34 1.312L5.51 13.59a1.638 1.638 0 001.258.47 1.64 1.64 0 001.16-.6l2.188-2.649c.33-.4.274-.99-.126-1.32z" fill="#2264D1"/></svg>