<svg width="105" height="105" viewBox="0 0 105 105" fill="none" xmlns="http://www.w3.org/2000/svg">
<path d="M103.427 100.654C103.907 100.428 104.14 99.807 103.947 99.2671L100.801 90.468C100.608 89.9281 100.062 89.6736 99.5826 89.8996C99.1029 90.1257 98.8705 90.7466 99.0635 91.2866L101.86 99.1079L94.9108 102.382C94.4311 102.608 94.1987 103.229 94.3918 103.769C94.5848 104.309 95.1302 104.563 95.6099 104.337L103.427 100.654ZM103.445 98.6956C85.7157 90.4229 71.5339 82.2977 60.8568 74.549C50.1629 66.7881 43.0559 59.4554 39.39 52.7992C35.7516 46.1929 35.5538 40.3829 38.4357 35.3673C41.3883 30.2284 47.7009 25.6788 57.6211 22.0863L57.0731 20.0682C47.0243 23.7072 40.188 28.4544 36.8701 34.229C33.4813 40.1268 33.8913 46.8468 37.7971 53.9385C41.6754 60.9804 49.0492 68.5137 59.8307 76.3381C70.629 84.1748 84.9172 92.3543 102.711 100.657L103.445 98.6956ZM57.6211 22.0863C62.6537 20.2638 66.2454 18.3667 68.5562 16.4538C70.838 14.565 72.0911 12.4625 71.8651 10.2378C71.6451 8.07126 70.0639 6.33085 67.9136 4.99131C65.7177 3.62334 62.6888 2.5178 59.0878 1.73377C44.7043 -1.39795 20.3062 0.420016 0.158779 12.878L1.03884 14.7351C20.7552 2.5436 44.7003 0.765348 58.7096 3.81557C62.2068 4.57702 65.0291 5.6281 66.9934 6.85172C69.0032 8.10375 69.8911 9.38989 70.0047 10.5087C70.1125 11.5693 69.5639 13.011 67.4645 14.7488C65.3941 16.4627 62.025 18.2749 57.0731 20.0682L57.6211 22.0863Z" fill="#ADC4EC"/>
</svg>
