<svg width="20" height="24" viewBox="0 0 20 24" fill="none" xmlns="http://www.w3.org/2000/svg">
<path d="M14.8308 17.4844H12.0652C11.5474 17.4844 11.1277 17.9041 11.1277 18.4219C11.1277 18.9397 11.5474 19.3594 12.0652 19.3594H14.8308C15.3486 19.3594 15.7683 18.9397 15.7683 18.4219C15.7683 17.9041 15.3486 17.4844 14.8308 17.4844Z" fill="#2264D1"/>
<path d="M14.8308 11.8125H12.0652C11.5474 11.8125 11.1277 12.2322 11.1277 12.75C11.1277 13.2678 11.5474 13.6875 12.0652 13.6875H14.8308C15.3486 13.6875 15.7683 13.2678 15.7683 12.75C15.7683 12.2322 15.3486 11.8125 14.8308 11.8125Z" fill="#2264D1"/>
<path d="M18.5756 16.5C19.0934 16.5 19.5131 16.0803 19.5131 15.5625V3.75C19.5131 1.68225 17.8309 0 15.7631 0H4.23706C2.16931 0 0.487061 1.68225 0.487061 3.75V20.25C0.487061 22.3177 2.16931 24 4.23706 24H15.7631C17.8309 24 19.5131 22.3177 19.5131 20.25C19.5131 19.7322 19.0934 19.3125 18.5756 19.3125C18.0578 19.3125 17.6381 19.7322 17.6381 20.25C17.6381 21.2839 16.797 22.125 15.7631 22.125H4.23706C3.20319 22.125 2.36206 21.2839 2.36206 20.25V3.75C2.36206 2.71613 3.20319 1.875 4.23706 1.875H15.7631C16.797 1.875 17.6381 2.71613 17.6381 3.75V15.5625C17.6381 16.0803 18.0578 16.5 18.5756 16.5Z" fill="#2264D1"/>
<path d="M9.99041 3.73051C9.59132 3.4008 9.00036 3.45695 8.6706 3.85614L6.64536 6.30737L5.84623 5.48673C5.48506 5.11581 4.89148 5.10789 4.52051 5.46911C4.14959 5.83033 4.14167 6.42386 4.50289 6.79483L5.50854 7.82762C5.51684 7.83615 5.52528 7.8445 5.5339 7.8527C5.83779 8.14197 6.2434 8.30284 6.66064 8.30284C6.69645 8.30275 6.7325 8.30158 6.7685 8.29914C7.22061 8.269 7.64281 8.05019 7.92814 7.69848L10.116 5.05037C10.4459 4.65119 10.3896 4.06028 9.99041 3.73051Z" fill="#2264D1"/>
<path d="M9.99041 15.1621C9.59131 14.8324 9.00036 14.8886 8.67059 15.2878L6.64479 17.7396L5.84439 16.9222C5.4821 16.5523 4.88857 16.5461 4.51863 16.9084C4.14869 17.2706 4.1425 17.8642 4.5047 18.2341L5.51036 19.2611C5.51805 19.2689 5.52588 19.2767 5.53385 19.2843C5.83774 19.5735 6.2434 19.7345 6.66063 19.7345C6.69649 19.7344 6.73249 19.7332 6.76849 19.7308C7.22055 19.7007 7.64276 19.4818 7.92813 19.1301L10.116 16.482C10.4458 16.0828 10.3896 15.4919 9.99041 15.1621Z" fill="#2264D1"/>
<path d="M14.8308 6.04688H12.0652C11.5474 6.04688 11.1277 6.46659 11.1277 6.98438C11.1277 7.50216 11.5474 7.92188 12.0652 7.92188H14.8308C15.3486 7.92188 15.7683 7.50216 15.7683 6.98438C15.7683 6.46659 15.3486 6.04688 14.8308 6.04688Z" fill="#2264D1"/>
<path d="M9.99041 9.49016C9.59131 9.1604 9.00036 9.21665 8.67059 9.61579L6.64479 12.0677L5.84439 11.2503C5.4821 10.8803 4.88857 10.8741 4.51863 11.2364C4.14869 11.5986 4.1425 12.1922 4.5047 12.5622L5.51036 13.5891C5.51805 13.597 5.52588 13.6047 5.53385 13.6123C5.83774 13.9016 6.2434 14.0625 6.66063 14.0625C6.69649 14.0624 6.73249 14.0612 6.76849 14.0588C7.22055 14.0287 7.64276 13.8099 7.92813 13.4582L10.116 10.81C10.4458 10.4108 10.3896 9.81993 9.99041 9.49016Z" fill="#2264D1"/>
</svg>
