<svg width="25" height="25" viewBox="0 0 25 25" fill="none" xmlns="http://www.w3.org/2000/svg">
<g clip-path="url(#clip0)">
<path d="M24.0235 0.553287C23.5075 0.0253906 22.8239 0.0255737 21.6956 0.0253906H21.6784C18.7702 0.0253906 14.4959 1.33826 11.5028 4.27145C11.5001 4.27419 11.4975 4.27676 11.4948 4.2795L10.9001 4.8768L3.15061 5.68997C1.65994 5.84635 0.540431 7.09843 0.546657 8.60228C0.548671 9.08532 0.550319 9.97155 0.550319 9.97174C0.551234 10.4374 0.893827 10.8316 1.35471 10.8975C1.384 10.9016 4.08208 11.304 5.79431 12.8643L4.5598 15.7749C4.41185 16.1239 4.48876 16.5279 4.75463 16.798L7.65925 19.7494C7.83924 19.9324 8.08112 20.0292 8.32722 20.0292C8.45759 20.0292 8.58906 20.0019 8.71284 19.9459L11.5356 18.6698C12.6434 19.9888 13.4469 22.3986 13.6831 23.3085C13.7869 23.7106 14.1431 23.9964 14.5582 24.0105C14.5851 24.0116 14.9989 24.0253 15.4433 24.0253C15.6969 24.0253 15.9602 24.0208 16.1671 24.0069C17.586 23.9105 18.7229 22.8178 18.8703 21.4086L19.6806 13.6617C19.6831 13.6366 19.6839 13.6117 19.6846 13.587L20.2108 13.0673C20.2147 13.0637 20.2182 13.06 20.2218 13.0564C23.2021 10.0153 24.5362 5.77915 24.5362 2.92983C24.5362 1.77479 24.5362 1.07752 24.0235 0.553287ZM2.42057 8.59459C2.41855 8.12584 2.73588 7.61772 3.34617 7.55363L8.80494 6.98088L5.45007 10.3499C4.31499 9.72583 3.16343 9.37994 2.4224 9.20306C2.42185 8.98772 2.42112 8.76598 2.42057 8.59459ZM8.53651 17.9693L6.52948 15.93L7.23645 14.263L10.1737 17.2292L8.53651 17.9693ZM17.0067 21.2137C16.9446 21.8076 16.4621 22.1088 16.0402 22.1373C15.847 22.1505 15.5649 22.1531 15.2964 22.1511C15.0709 21.4337 14.6574 20.2631 14.0621 19.1371L17.5877 15.6568L17.0067 21.2137ZM18.8888 11.7394L13.066 17.4872L7.04383 11.4051L12.8186 5.60593C15.4199 3.0591 19.2341 1.8993 21.6784 1.8993H21.6956C22.0555 1.89985 22.4209 1.8993 22.6388 1.91853C22.6623 2.15895 22.6623 2.57753 22.6623 2.93001C22.6623 5.3168 21.4814 9.09063 18.8888 11.7394ZM4.74382 19.759C5.11297 20.1215 5.11828 20.7148 4.75573 21.0839L2.15561 23.7309C1.97232 23.9177 1.72971 24.0112 1.48728 24.0112C1.25015 24.0112 1.01303 23.9219 0.830655 23.7426C0.461512 23.3801 0.456202 22.7868 0.818753 22.4177L3.41887 19.7709C3.7816 19.4017 4.37468 19.3964 4.74382 19.759ZM0.824796 18.9584C0.458949 18.5924 0.458949 17.9993 0.824796 17.6333L1.668 16.7901C2.03385 16.4242 2.62711 16.4242 2.99314 16.7901C3.35899 17.1561 3.35899 17.7492 2.99314 18.1152L2.14975 18.9584C1.96683 19.1413 1.72696 19.2329 1.48728 19.2329C1.24741 19.2329 1.00772 19.1413 0.824796 18.9584ZM7.77149 21.5686C8.13734 21.9345 8.13734 22.5277 7.77149 22.8936L6.92829 23.7368C6.74536 23.9197 6.50549 24.0112 6.26562 24.0112C6.02594 24.0112 5.78607 23.9197 5.60314 23.7368C5.2373 23.3709 5.2373 22.7777 5.60314 22.4118L6.44635 21.5686C6.81238 21.2026 7.40564 21.2026 7.77149 21.5686ZM14.634 12.3155C14.9998 12.6813 14.9998 13.2746 14.634 13.6405C14.451 13.8236 14.2112 13.9149 13.9713 13.9149C13.7316 13.9149 13.4917 13.8236 13.3088 13.6405L10.9196 11.2513C10.5538 10.8854 10.5538 10.2922 10.9196 9.92633C11.2855 9.5603 11.8788 9.5603 12.2446 9.92633L14.634 12.3155ZM19.5205 6.61466C19.8917 6.9752 19.9003 7.56846 19.5397 7.93962C19.3561 8.12859 19.1118 8.22362 18.8676 8.22362C18.6323 8.22362 18.3968 8.13573 18.2148 7.95885L16.5751 6.366C16.2039 6.00547 16.1953 5.4122 16.5558 5.04105C16.9164 4.66989 17.5096 4.66128 17.8808 5.02182L19.5205 6.61466ZM17.2815 9.66925C17.6473 10.0351 17.6473 10.6284 17.2815 10.9944C17.0986 11.1773 16.8587 11.2687 16.619 11.2687C16.3791 11.2687 16.1395 11.1773 15.9564 10.9944L13.5672 8.60503C13.2013 8.23918 13.2013 7.64592 13.5672 7.28007C13.933 6.91423 14.5263 6.91423 14.8923 7.28007L17.2815 9.66925Z" fill="#2264D1"/>
</g>
<defs>
<clipPath id="clip0">
<rect width="24" height="24" fill="white" transform="translate(0.5 0.0253906)"/>
</clipPath>
</defs>
</svg>
