<svg width="1358" height="3216" viewBox="0 0 1358 3216" fill="none" xmlns="http://www.w3.org/2000/svg"><path d="M12 72c0-33.137 26.863-60 60-60h1214c33.14 0 60 26.863 60 60v2792.99c0 23.44-13.65 44.73-34.95 54.52l-605.129 278.02a60.027 60.027 0 01-49.978.05L72.206 2930.95C35.53 2914.2 12 2877.58 12 2837.26V72z" fill="#fff"/><path d="M72 6C35.55 6 6 35.55 6 72v2765.26c0 42.67 24.9 81.42 63.713 99.15l583.737 266.63a66.039 66.039 0 0054.975-.06l605.125-278.02c23.43-10.76 38.45-34.19 38.45-59.97V72c0-36.45-29.55-66-66-66H72z" stroke="#fff" stroke-opacity=".4" stroke-width="12"/></svg>