<svg width="1358" height="3216" viewBox="0 0 1358 3216" fill="none" xmlns="http://www.w3.org/2000/svg">
<path d="M12 72C12 38.8629 38.8629 12 72 12H1286C1319.14 12 1346 38.8629 1346 72V2864.99C1346 2888.43 1332.35 2909.72 1311.05 2919.51L705.921 3197.53C690.062 3204.81 671.818 3204.83 655.943 3197.58L72.2061 2930.95C35.5288 2914.2 12 2877.58 12 2837.26V72Z" fill="white"/>
<path d="M72 6C35.5492 6 6 35.5492 6 72V2837.26C6 2879.93 30.8994 2918.68 69.7133 2936.41L653.45 3203.04C670.912 3211.01 690.981 3210.99 708.425 3202.98L1313.55 2924.96C1336.98 2914.2 1352 2890.77 1352 2864.99V72C1352 35.5492 1322.45 6 1286 6H72Z" stroke="white" stroke-opacity="0.4" stroke-width="12"/>
</svg>
