<svg width="105" height="105" viewBox="0 0 105 105" fill="none" xmlns="http://www.w3.org/2000/svg"><path d="M103.427 100.654c.48-.226.713-.847.52-1.387l-3.146-8.799c-.193-.54-.739-.794-1.218-.568-.48.226-.712.847-.52 1.387l2.797 7.82-6.95 3.275c-.479.226-.711.847-.518 1.387.193.54.738.794 1.218.568l7.817-3.683zm.018-1.958c-17.73-8.273-31.911-16.398-42.588-24.147-10.694-7.76-17.801-15.094-21.467-21.75-3.638-6.606-3.836-12.416-.954-17.432 2.952-5.139 9.265-9.688 19.185-13.28l-.548-2.019c-10.049 3.64-16.885 8.386-20.203 14.161-3.389 5.898-2.979 12.618.927 19.71 3.878 7.041 11.252 14.575 22.034 22.4 10.798 7.836 25.086 16.015 42.88 24.318l.734-1.961zm-45.824-76.61c5.033-1.822 8.624-3.72 10.935-5.632 2.282-1.889 3.535-3.992 3.31-6.216-.22-2.167-1.802-3.907-3.952-5.247-2.196-1.368-5.225-2.473-8.826-3.257C44.704-1.398 20.306.42.158 12.878l.88 1.857C20.756 2.544 44.7.765 58.71 3.815c3.497.762 6.32 1.813 8.283 3.037 2.01 1.252 2.898 2.538 3.012 3.657.108 1.06-.441 2.502-2.54 4.24-2.07 1.714-5.44 3.526-10.392 5.32l.548 2.017z" fill="#ADC4EC"/></svg>