<svg width="24" height="22" viewBox="0 0 24 22" fill="none" xmlns="http://www.w3.org/2000/svg">
<path d="M20.2969 9.12793C20.2969 8.61015 19.8772 8.19043 19.3594 8.19043H13.9219C13.4041 8.19043 12.9844 8.61015 12.9844 9.12793C12.9844 9.64571 13.4041 10.0654 13.9219 10.0654H19.3594C19.8772 10.0654 20.2969 9.64571 20.2969 9.12793Z" fill="#2264D1"/>
<path d="M13.9219 11.9404C13.4041 11.9404 12.9844 12.3601 12.9844 12.8779C12.9844 13.3957 13.4041 13.8154 13.9219 13.8154H17.4844C18.0022 13.8154 18.4219 13.3957 18.4219 12.8779C18.4219 12.3601 18.0022 11.9404 17.4844 11.9404H13.9219Z" fill="#2264D1"/>
<path d="M23.0625 10.0654C23.5803 10.0654 24 9.64571 24 9.12793V4.44043C24 2.37268 22.3177 0.69043 20.25 0.69043H3.75C1.68225 0.69043 0 2.37268 0 4.44043V13.8154C0 15.8832 1.68225 17.5654 3.75 17.5654H11.0625V19.4347H7.78125C7.26347 19.4347 6.84375 19.8544 6.84375 20.3722C6.84375 20.89 7.26347 21.3097 7.78125 21.3097H16.2188C16.7365 21.3097 17.1562 20.89 17.1562 20.3722C17.1562 19.8544 16.7365 19.4347 16.2188 19.4347H12.9375V17.5654H20.25C22.3177 17.5654 24 15.8832 24 13.8154C24 13.2976 23.5803 12.8779 23.0625 12.8779C22.5447 12.8779 22.125 13.2976 22.125 13.8154C22.125 14.8493 21.2839 15.6904 20.25 15.6904H3.75C2.71613 15.6904 1.875 14.8493 1.875 13.8154V4.44043C1.875 3.40655 2.71613 2.56543 3.75 2.56543H20.25C21.2839 2.56543 22.125 3.40655 22.125 4.44043V9.12793C22.125 9.64571 22.5447 10.0654 23.0625 10.0654Z" fill="#2264D1"/>
<path d="M10.0781 8.19043H4.64062C4.12284 8.19043 3.70312 8.61015 3.70312 9.12793C3.70312 9.64571 4.12284 10.0654 4.64062 10.0654H10.0781C10.5959 10.0654 11.0156 9.64571 11.0156 9.12793C11.0156 8.61015 10.5959 8.19043 10.0781 8.19043Z" fill="#2264D1"/>
<path d="M19.3594 4.44043H13.9219C13.4041 4.44043 12.9844 4.86015 12.9844 5.37793C12.9844 5.89572 13.4041 6.31544 13.9219 6.31544H19.3594C19.8772 6.31544 20.2969 5.89572 20.2969 5.37793C20.2969 4.86015 19.8772 4.44043 19.3594 4.44043Z" fill="#2264D1"/>
<path d="M10.0781 4.44043H4.64062C4.12284 4.44043 3.70312 4.86015 3.70312 5.37793C3.70312 5.89572 4.12284 6.31544 4.64062 6.31544H10.0781C10.5959 6.31544 11.0156 5.89572 11.0156 5.37793C11.0156 4.86015 10.5959 4.44043 10.0781 4.44043Z" fill="#2264D1"/>
<path d="M10.0781 11.9404H4.64062C4.12284 11.9404 3.70312 12.3601 3.70312 12.8779C3.70312 13.3957 4.12284 13.8154 4.64062 13.8154H10.0781C10.5959 13.8154 11.0156 13.3957 11.0156 12.8779C11.0156 12.3601 10.5959 11.9404 10.0781 11.9404Z" fill="#2264D1"/>
</svg>
