<svg width="25" height="25" viewBox="0 0 25 25" fill="none" xmlns="http://www.w3.org/2000/svg"><g clip-path="url(#clip0)"><path d="M24.023.553c-.515-.528-1.2-.527-2.327-.528h-.018c-2.908 0-7.182 1.313-10.175 4.246l-.008.008-.595.598-7.75.813A2.904 2.904 0 00.548 8.602l.003 1.37c.001.465.344.86.805.926.029.004 2.727.406 4.44 1.966l-1.235 2.91a.937.937 0 00.195 1.024l2.904 2.951a.936.936 0 001.054.197l2.823-1.276c1.107 1.319 1.91 3.729 2.147 4.638.104.403.46.688.875.703.027 0 .44.014.885.014.254 0 .517-.004.724-.018a2.907 2.907 0 002.703-2.598l.81-7.747a1.05 1.05 0 00.005-.075l.526-.52.01-.01c2.981-3.042 4.315-7.278 4.315-10.127 0-1.155 0-1.852-.513-2.377zM2.421 8.595c-.002-.47.315-.977.925-1.041l5.459-.573L5.45 10.35c-1.135-.624-2.287-.97-3.028-1.147l-.001-.608zm6.116 9.374L6.529 15.93l.707-1.667 2.938 2.966-1.637.74zm8.47 3.245c-.062.594-.545.895-.967.923-.193.014-.475.016-.744.014-.225-.717-.639-1.888-1.234-3.014l3.526-3.48-.581 5.557zm1.882-9.475l-5.823 5.748-6.022-6.082 5.775-5.8c2.6-2.546 6.415-3.706 8.86-3.706h.017c.36 0 .725 0 .943.02.023.24.023.659.023 1.011 0 2.387-1.18 6.16-3.773 8.81zM4.744 19.76a.938.938 0 01.012 1.325l-2.6 2.647a.934.934 0 01-1.325.012.937.937 0 01-.012-1.325l2.6-2.647a.937.937 0 011.325-.012zm-3.92-.8a.937.937 0 010-1.326l.844-.843a.937.937 0 011.325 1.325l-.843.843a.934.934 0 01-1.325 0zm6.947 2.61a.937.937 0 010 1.325l-.843.843a.934.934 0 01-1.325 0 .937.937 0 010-1.325l.843-.843a.937.937 0 011.325 0zm6.863-9.253a.937.937 0 01-1.325 1.324l-2.39-2.389a.937.937 0 011.326-1.325l2.389 2.39zm4.886-5.701a.937.937 0 11-1.305 1.344l-1.64-1.593a.937.937 0 011.306-1.344l1.64 1.593zM17.282 9.67a.937.937 0 01-1.326 1.325l-2.389-2.389a.937.937 0 111.325-1.325l2.39 2.39z" fill="#2264D1"/></g><defs><clipPath id="clip0"><path fill="#fff" transform="translate(.5 .025)" d="M0 0h24v24H0z"/></clipPath></defs></svg>